<svg data-v-0dd9719b="" version="1.0" xmlns="http://www.w3.org/2000/svg" xmlns:xlink="http://www.w3.org/1999/xlink" width="100%" height="100%" viewBox="0 0 340.000000 250.000000" preserveAspectRatio="xMidYMid meet" color-interpolation-filters="sRGB" style="margin: auto;"> <rect data-v-0dd9719b="" x="0" y="0" width="100%" height="100%" fill="#ffffff" fill-opacity="1" class="background"></rect> <rect data-v-0dd9719b="" x="0" y="0" width="100%" height="100%" fill="url(#watermark)" fill-opacity="1" class="watermarklayer"></rect> <g data-v-0dd9719b="" class="iconmbgsvg" transform="translate(56.222503662109375,85.45792388916016)"><g fill="#ffffff" hollow-target="text"><g mask="url(#96c8654b-b24d-41dd-8292-5fbb9c6ec65f)"><g><rect fill="#ffffff" fill-opacity="0" stroke-width="2" x="0" y="0" width="65" height="75.96830368621583" class="image-rect"></rect> <svg filter="url(#colors1497461056)" x="0" y="0" width="65" height="75.96830368621583" filtersec="colorsf3168065982" class="image-svg-svg primary" style="overflow: visible;"><svg xmlns="http://www.w3.org/2000/svg" viewBox="0 -0.003948569297790527 34 39.73741912841797"><g><path d="M10.2 16.05c7.65-2.43 8.86-9.47 7.89-15.78 0 0 0-.37.25-.25C25.74 3.67 34 11.32 34 23.1a16.66 16.66 0 0 1-17 16.63C6.07 39.73 0 32.08 0 23A16.39 16.39 0 0 1 7.89 9.62s.37 0 .37.24a12.1 12.1 0 0 0 1.82 6.07z"></path></g></svg></svg> <defs><filter id="colors1497461056"><feColorMatrix type="matrix" values="0 0 0 0 0.99609375  0 0 0 0 0.99609375  0 0 0 0 0.99609375  0 0 0 1 0" class="icon-fecolormatrix"></feColorMatrix></filter> <filter id="colorsf3168065982"><feColorMatrix type="matrix" values="0 0 0 0 0.99609375  0 0 0 0 0.99609375  0 0 0 0 0.99609375  0 0 0 1 0" class="icon-fecolormatrix"></feColorMatrix></filter> <filter id="colorsb3491065716"><feColorMatrix type="matrix" values="0 0 0 0 0  0 0 0 0 0  0 0 0 0 0  0 0 0 1 0" class="icon-fecolormatrix"></feColorMatrix></filter></defs></g><rect v-gra="id" width="77" height="87.96830749511719" transform="translate(-6, -6)" style="pointer-events:none;" fill="url(#J6Cm_Af57Tx_wqhVAoQ22)"></rect></g> <g transform="translate(13.444999694824219,50.88415336608887)"><g data-gra="path-name" fill-rule="" class="tp-name" fill="url(#7d7df2d3-7f99-43ce-ae66-bed741ca435c)"><g transform="scale(1)"><g><path d="M15.21 0.35Q11.19 0.35 8.25-1.36 5.3-3.08 3.71-6.28 2.11-9.48 2.11-13.77L2.11-13.77Q2.11-18.06 3.69-21.24 5.26-24.41 8.23-26.13 11.19-27.85 15.21-27.85L15.21-27.85Q19.23-27.85 22.17-26.13 25.12-24.41 26.7-21.24 28.27-18.06 28.27-13.77L28.27-13.77Q28.27-9.48 26.68-6.28 25.08-3.08 22.13-1.36 19.19 0.35 15.21 0.35L15.21 0.35ZM15.21-3.67Q18.99-3.67 21.12-6.28 23.24-8.89 23.24-13.77L23.24-13.77Q23.24-18.64 21.12-21.24 18.99-23.83 15.21-23.83L15.21-23.83Q11.39-23.83 9.26-21.24 7.14-18.64 7.14-13.77L7.14-13.77Q7.14-8.89 9.26-6.28 11.39-3.67 15.21-3.67L15.21-3.67ZM56.17-27.69Q57.26-27.69 57.91-27.01 58.55-26.32 58.55-25.19L58.55-25.19 58.55-2.3Q58.55-1.17 57.89-0.47 57.22 0.23 56.17 0.23L56.17 0.23Q54.92 0.23 54.26-0.66L54.26-0.66 40.02-19.19 40.02-2.3Q40.02-1.17 39.4-0.47 38.78 0.23 37.69 0.23L37.69 0.23Q36.59 0.23 35.97-0.47 35.34-1.17 35.34-2.3L35.34-2.3 35.34-25.19Q35.34-26.32 36.01-27.01 36.67-27.69 37.76-27.69L37.76-27.69Q38.97-27.69 39.63-26.79L39.63-26.79 53.83-8.35 53.83-25.19Q53.83-26.32 54.47-27.01 55.12-27.69 56.17-27.69L56.17-27.69ZM68.9 0Q67.77 0 67.12-0.62 66.48-1.25 66.48-2.38L66.48-2.38 66.48-25.12Q66.48-26.25 67.12-26.87 67.77-27.5 68.9-27.5L68.9-27.5 82.97-27.5Q84.11-27.5 84.73-26.99 85.35-26.48 85.35-25.55L85.35-25.55Q85.35-24.57 84.73-24.04 84.11-23.52 82.97-23.52L82.97-23.52 71.39-23.52 71.39-15.95 82.19-15.95Q83.33-15.95 83.95-15.44 84.57-14.94 84.57-13.96L84.57-13.96Q84.57-13.03 83.95-12.52 83.33-12.01 82.19-12.01L82.19-12.01 71.39-12.01 71.39-3.98 82.97-3.98Q84.11-3.98 84.73-3.45 85.35-2.92 85.35-1.95L85.35-1.95Q85.35-1.01 84.73-0.51 84.11 0 82.97 0L82.97 0 68.9 0ZM93.94 0.23Q92.81 0.23 92.13-0.45 91.45-1.13 91.45-2.3L91.45-2.3 91.45-25.12Q91.45-26.25 92.09-26.87 92.74-27.5 93.87-27.5L93.87-27.5 103.46-27.5Q107.87-27.5 110.33-25.29 112.78-23.09 112.78-19.11L112.78-19.11Q112.78-15.13 110.33-12.91 107.87-10.69 103.46-10.69L103.46-10.69 96.48-10.69 96.48-2.3Q96.48-1.13 95.8-0.45 95.11 0.23 93.94 0.23L93.94 0.23ZM102.84-14.55Q108.02-14.55 108.02-19.07L108.02-19.07Q108.02-23.59 102.84-23.59L102.84-23.59 96.48-23.59 96.48-14.55 102.84-14.55ZM131.04 0.35Q127.03 0.35 124.08-1.36 121.14-3.08 119.54-6.28 117.94-9.48 117.94-13.77L117.94-13.77Q117.94-18.06 119.52-21.24 121.1-24.41 124.06-26.13 127.03-27.85 131.04-27.85L131.04-27.85Q135.06-27.85 138.01-26.13 140.95-24.41 142.53-21.24 144.11-18.06 144.11-13.77L144.11-13.77Q144.11-9.48 142.51-6.28 140.91-3.08 137.97-1.36 135.02 0.35 131.04 0.35L131.04 0.35ZM131.04-3.67Q134.83-3.67 136.95-6.28 139.08-8.89 139.08-13.77L139.08-13.77Q139.08-18.64 136.95-21.24 134.83-23.83 131.04-23.83L131.04-23.83Q127.22-23.83 125.1-21.24 122.97-18.64 122.97-13.77L122.97-13.77Q122.97-8.89 125.1-6.28 127.22-3.67 131.04-3.67L131.04-3.67ZM153.68 0.23Q152.55 0.23 151.86-0.47 151.18-1.17 151.18-2.3L151.18-2.3 151.18-25.19Q151.18-26.32 151.86-27.01 152.55-27.69 153.68-27.69L153.68-27.69Q154.85-27.69 155.53-27.01 156.21-26.32 156.21-25.19L156.21-25.19 156.21-2.3Q156.21-1.17 155.53-0.47 154.85 0.23 153.68 0.23L153.68 0.23ZM184.97-27.69Q186.06-27.69 186.7-27.01 187.34-26.32 187.34-25.19L187.34-25.19 187.34-2.3Q187.34-1.17 186.68-0.47 186.02 0.23 184.97 0.23L184.97 0.23Q183.72 0.23 183.05-0.66L183.05-0.66 168.82-19.19 168.82-2.3Q168.82-1.17 168.2-0.47 167.57 0.23 166.48 0.23L166.48 0.23Q165.39 0.23 164.76-0.47 164.14-1.17 164.14-2.3L164.14-2.3 164.14-25.19Q164.14-26.32 164.8-27.01 165.47-27.69 166.56-27.69L166.56-27.69Q167.77-27.69 168.43-26.79L168.43-26.79 182.63-8.35 182.63-25.19Q182.63-26.32 183.27-27.01 183.91-27.69 184.97-27.69L184.97-27.69ZM204.28 0.2Q203.11 0.2 202.43-0.49 201.75-1.17 201.75-2.3L201.75-2.3 201.75-23.36 194.65-23.36Q192.31-23.36 192.31-25.43L192.31-25.43Q192.31-27.5 194.65-27.5L194.65-27.5 213.88-27.5Q216.22-27.5 216.22-25.43L216.22-25.43Q216.22-23.36 213.88-23.36L213.88-23.36 206.78-23.36 206.78-2.3Q206.78-1.17 206.09-0.49 205.41 0.2 204.28 0.2L204.28 0.2Z" transform="translate(-2.109999895095825, 27.850000381469727)"></path></g> <!----> <!----> <!----> <!----> <!----> <!----> <!----></g></g> <!----></g></g></g><mask id="9937c349-67f2-482b-92a5-393885d38440"><g fill="white"><g><rect fill-opacity="1" stroke-width="2" x="0" y="0" width="65" height="75.96830368621583" class="image-rect"></rect> <svg x="0" y="0" width="65" height="75.96830368621583" class="image-svg-svg primary" style="overflow: visible;" filter="url(#colorsf3168065982)"><svg xmlns="http://www.w3.org/2000/svg" viewBox="0 -0.003948569297790527 34 39.73741912841797"><g><path d="M10.2 16.05c7.65-2.43 8.86-9.47 7.89-15.78 0 0 0-.37.25-.25C25.74 3.67 34 11.32 34 23.1a16.66 16.66 0 0 1-17 16.63C6.07 39.73 0 32.08 0 23A16.39 16.39 0 0 1 7.89 9.62s.37 0 .37.24a12.1 12.1 0 0 0 1.82 6.07z"></path></g></svg></svg> <defs>  </defs></g></g> <g transform="translate(13.444999694824219,50.88415336608887)" fill="black" stroke="black" stroke-width="6" stroke-linejoin="round"><g data-gra="path-name" fill-rule="" class="tp-name"><g transform="scale(1)"><g><path d="M15.21 0.35Q11.19 0.35 8.25-1.36 5.3-3.08 3.71-6.28 2.11-9.48 2.11-13.77L2.11-13.77Q2.11-18.06 3.69-21.24 5.26-24.41 8.23-26.13 11.19-27.85 15.21-27.85L15.21-27.85Q19.23-27.85 22.17-26.13 25.12-24.41 26.7-21.24 28.27-18.06 28.27-13.77L28.27-13.77Q28.27-9.48 26.68-6.28 25.08-3.08 22.13-1.36 19.19 0.35 15.21 0.35L15.21 0.35ZM15.21-3.67Q18.99-3.67 21.12-6.28 23.24-8.89 23.24-13.77L23.24-13.77Q23.24-18.64 21.12-21.24 18.99-23.83 15.21-23.83L15.21-23.83Q11.39-23.83 9.26-21.24 7.14-18.64 7.14-13.77L7.14-13.77Q7.14-8.89 9.26-6.28 11.39-3.67 15.21-3.67L15.21-3.67ZM56.17-27.69Q57.26-27.69 57.91-27.01 58.55-26.32 58.55-25.19L58.55-25.19 58.55-2.3Q58.55-1.17 57.89-0.47 57.22 0.23 56.17 0.23L56.17 0.23Q54.92 0.23 54.26-0.66L54.26-0.66 40.02-19.19 40.02-2.3Q40.02-1.17 39.4-0.47 38.78 0.23 37.69 0.23L37.69 0.23Q36.59 0.23 35.97-0.47 35.34-1.17 35.34-2.3L35.34-2.3 35.34-25.19Q35.34-26.32 36.01-27.01 36.67-27.69 37.76-27.69L37.76-27.69Q38.97-27.69 39.63-26.79L39.63-26.79 53.83-8.35 53.83-25.19Q53.83-26.32 54.47-27.01 55.12-27.69 56.17-27.69L56.17-27.69ZM68.9 0Q67.77 0 67.12-0.62 66.48-1.25 66.48-2.38L66.48-2.38 66.48-25.12Q66.48-26.25 67.12-26.87 67.77-27.5 68.9-27.5L68.9-27.5 82.97-27.5Q84.11-27.5 84.73-26.99 85.35-26.48 85.35-25.55L85.35-25.55Q85.35-24.57 84.73-24.04 84.11-23.52 82.97-23.52L82.97-23.52 71.39-23.52 71.39-15.95 82.19-15.95Q83.33-15.95 83.95-15.44 84.57-14.94 84.57-13.96L84.57-13.96Q84.57-13.03 83.95-12.52 83.33-12.01 82.19-12.01L82.19-12.01 71.39-12.01 71.39-3.98 82.97-3.98Q84.11-3.98 84.73-3.45 85.35-2.92 85.35-1.95L85.35-1.95Q85.35-1.01 84.73-0.51 84.11 0 82.97 0L82.97 0 68.9 0ZM93.94 0.23Q92.81 0.23 92.13-0.45 91.45-1.13 91.45-2.3L91.45-2.3 91.45-25.12Q91.45-26.25 92.09-26.87 92.74-27.5 93.87-27.5L93.87-27.5 103.46-27.5Q107.87-27.5 110.33-25.29 112.78-23.09 112.78-19.11L112.78-19.11Q112.78-15.13 110.33-12.91 107.87-10.69 103.46-10.69L103.46-10.69 96.48-10.69 96.48-2.3Q96.48-1.13 95.8-0.45 95.11 0.23 93.94 0.23L93.94 0.23ZM102.84-14.55Q108.02-14.55 108.02-19.07L108.02-19.07Q108.02-23.59 102.84-23.59L102.84-23.59 96.48-23.59 96.48-14.55 102.84-14.55ZM131.04 0.35Q127.03 0.35 124.08-1.36 121.14-3.08 119.54-6.28 117.94-9.48 117.94-13.77L117.94-13.77Q117.94-18.06 119.52-21.24 121.1-24.41 124.06-26.13 127.03-27.85 131.04-27.85L131.04-27.85Q135.06-27.85 138.01-26.13 140.95-24.41 142.53-21.24 144.11-18.06 144.11-13.77L144.11-13.77Q144.11-9.48 142.51-6.28 140.91-3.08 137.97-1.36 135.02 0.35 131.04 0.35L131.04 0.35ZM131.04-3.67Q134.83-3.67 136.95-6.28 139.08-8.89 139.08-13.77L139.08-13.77Q139.08-18.64 136.95-21.24 134.83-23.83 131.04-23.83L131.04-23.83Q127.22-23.83 125.1-21.24 122.97-18.64 122.97-13.77L122.97-13.77Q122.97-8.89 125.1-6.28 127.22-3.67 131.04-3.67L131.04-3.67ZM153.68 0.23Q152.55 0.23 151.86-0.47 151.18-1.17 151.18-2.3L151.18-2.3 151.18-25.19Q151.18-26.32 151.86-27.01 152.55-27.69 153.68-27.69L153.68-27.69Q154.85-27.69 155.53-27.01 156.21-26.32 156.21-25.19L156.21-25.19 156.21-2.3Q156.21-1.17 155.53-0.47 154.85 0.23 153.68 0.23L153.68 0.23ZM184.97-27.69Q186.06-27.69 186.7-27.01 187.34-26.32 187.34-25.19L187.34-25.19 187.34-2.3Q187.34-1.17 186.68-0.47 186.02 0.23 184.97 0.23L184.97 0.23Q183.72 0.23 183.05-0.66L183.05-0.66 168.82-19.19 168.82-2.3Q168.82-1.17 168.2-0.47 167.57 0.23 166.48 0.23L166.48 0.23Q165.39 0.23 164.76-0.47 164.14-1.17 164.14-2.3L164.14-2.3 164.14-25.19Q164.14-26.32 164.8-27.01 165.47-27.69 166.56-27.69L166.56-27.69Q167.77-27.69 168.43-26.79L168.43-26.79 182.63-8.35 182.63-25.19Q182.63-26.32 183.27-27.01 183.91-27.69 184.97-27.69L184.97-27.69ZM204.28 0.2Q203.11 0.2 202.43-0.49 201.75-1.17 201.75-2.3L201.75-2.3 201.75-23.36 194.65-23.36Q192.31-23.36 192.31-25.43L192.31-25.43Q192.31-27.5 194.65-27.5L194.65-27.5 213.88-27.5Q216.22-27.5 216.22-25.43L216.22-25.43Q216.22-23.36 213.88-23.36L213.88-23.36 206.78-23.36 206.78-2.3Q206.78-1.17 206.09-0.49 205.41 0.2 204.28 0.2L204.28 0.2Z" transform="translate(-2.109999895095825, 27.850000381469727)"></path></g>       </g></g> </g></mask><defs v-gra="od"><linearGradient x1="0" y1="1" x2="0" y2="0" id="7d7df2d3-7f99-43ce-ae66-bed741ca435c"><stop offset="0%" stop-color="#b722ff"></stop><stop offset="100%" stop-color="#22d4fe"></stop></linearGradient><filter id="42443b3f1de60f6b6fd3b6a9844b4764" filterUnits="objectBoundingBox"><feColorMatrix type="matrix" values="0 0 0 0 0.99609375  0 0 0 0 0.99609375  0 0 0 0 0.99609375  0 0 0 1 0"></feColorMatrix></filter></defs><defs v-gra="id"><filter id="27d8ae4c-c36d-4635-9f69-4d962ad93f78" filterUnits="userSpaceOnUse"><feColorMatrix type="matrix" values="0 0 0 0 0.99609375  0 0 0 0 0.99609375  0 0 0 0 0.99609375  0 0 0 1 0"></feColorMatrix></filter><linearGradient x1="0" y1="1" x2="0" y2="0" id="J6Cm_Af57Tx_wqhVAoQ22"><stop offset="0%" stop-color="#fa8bff"></stop><stop offset="50%" stop-color="#2bd2ff"></stop><stop offset="100%" stop-color="#2bff88"></stop></linearGradient><filter id="42443b3f1de60f6b6fd3b6a9844b4764" filterUnits="objectBoundingBox"><feColorMatrix type="matrix" values="0 0 0 0 0.99609375  0 0 0 0 0.99609375  0 0 0 0 0.99609375  0 0 0 1 0"></feColorMatrix></filter></defs><mask v-gra="im" id="96c8654b-b24d-41dd-8292-5fbb9c6ec65f"><g mask="url(#9937c349-67f2-482b-92a5-393885d38440)" filter="url(#27d8ae4c-c36d-4635-9f69-4d962ad93f78)"><g><rect fill="#ffffff" fill-opacity="0" stroke-width="2" x="0" y="0" width="65" height="75.96830368621583" class="image-rect"></rect> <svg x="0" y="0" width="65" height="75.96830368621583" filtersec="colorsf3168065982" class="image-svg-svg primary" style="overflow: visible;"><svg xmlns="http://www.w3.org/2000/svg" viewBox="0 -0.003948569297790527 34 39.73741912841797"><g><path d="M10.2 16.05c7.65-2.43 8.86-9.47 7.89-15.78 0 0 0-.37.25-.25C25.74 3.67 34 11.32 34 23.1a16.66 16.66 0 0 1-17 16.63C6.07 39.73 0 32.08 0 23A16.39 16.39 0 0 1 7.89 9.62s.37 0 .37.24a12.1 12.1 0 0 0 1.82 6.07z"></path></g></svg></svg> <defs><filter id="colors1497461056"><feColorMatrix type="matrix" values="0 0 0 0 0.99609375  0 0 0 0 0.99609375  0 0 0 0 0.99609375  0 0 0 1 0" class="icon-fecolormatrix"></feColorMatrix></filter> <filter id="colorsf3168065982"><feColorMatrix type="matrix" values="0 0 0 0 0.99609375  0 0 0 0 0.99609375  0 0 0 0 0.99609375  0 0 0 1 0" class="icon-fecolormatrix"></feColorMatrix></filter> <filter id="colorsb3491065716"><feColorMatrix type="matrix" values="0 0 0 0 0  0 0 0 0 0  0 0 0 0 0  0 0 0 1 0" class="icon-fecolormatrix"></feColorMatrix></filter></defs></g></g></mask></svg>